# xmcd
#
# Track frame offsets:
#	150
#	18390
#	36680
#	58932
#	83120
#	102380
#	135847
#	156140
#	174157
#	191615
#	205795
#	216460
#	232210
#	247247
#	272787
#	284705
#	308340
#
# Disc length: 4381 seconds
#
# Revision: 2
# Processed by: cddbd v1.4PL0 Copyright (c) Steve Scherf et al.
# Submitted via: CDmax 1.9
#
DISCID=00111b11
DTITLE=Various Artist - Don't Let The Bastards Get You Down
DYEAR=2002
DGENRE=Country
TTITLE0=Tom Verlaine - The Hawk
TTITLE1=Chuck Prophet - Loving Her Was Easier
TTITLE2=Polara - Just The Other Side of Nowhere
TTITLE3=Mother Hips - Sunday Mornin' Comin' Down
TTITLE4=John Doe - Me and Bobby McGee
TTITLE5=Hannah Marcus and Mark Kozelek - Lights of Magdala
TTITLE6=Tom Heyman - Sugar man
TTITLE7=Oranger - Casey's Last Ride
TTITLE8=Jon Langford and Chip Taylor - Help Me Make It Through the Night
TTITLE9=Northern Lights - The Law is for Protection of the People
TTITLE10=Mover - Jesus Was a Capricorn
TTITLE11=John P. Strohm - Nobody Wins
TTITLE12=Kelly Hogan - Why Me
TTITLE13=Dart - For The Good Times
TTITLE14=Beaver Nelson - Jody and the Kid
TTITLE15=Paul Burch - The Pilgram (Chapter 33)
TTITLE16=Stephen Bruton - Border Lord
EXTD=A Tribute to Kris Kristofferson
EXTT0=
EXTT1=
EXTT2=
EXTT3=
EXTT4=
EXTT5=
EXTT6=
EXTT7=
EXTT8=
EXTT9=
EXTT10=
EXTT11=
EXTT12=
EXTT13=
EXTT14=
EXTT15=
EXTT16=
PLAYORDER=
